# xmcd
#
# Track frame offsets:
#	150
#	12198
#	24027
#	36176
#	47962
#	61320
#	74116
#	86161
#	98195
#	109113
#	121310
#	133147
#	145173
#	156622
#	167841
#	179984
#	193571
#	206192
#	218470
#	229161
#
# Disc length: 3199 seconds
#
# Revision: 0
# Processed by: cddbd v1.4PL0 Copyright (c) Steve Scherf et al.
# Submitted via: EasyCDDAExtractor 4.6.0.1
#
DISCID=2f0c7d14
DTITLE=Flatt and Scruggs - My Cabin in Caroline
DYEAR=2001
DGENRE=Bluegrass
TTITLE0=God Loves His Children
TTITLE1=I'm Going to Make Heaven My Home
TTITLE2=We'll Meet Again Sweetheart
TTITLE3=My Cabin in Caroline
TTITLE4=Baby Blue Eyes
TTITLE5=Bouquet in Heaven
TTITLE6=Down the Road
TTITLE7=Why Don't You Tell Me So
TTITLE8=I'll Never Shed Another Tear
TTITLE9=No Mother or Dad
TTITLE10=Is it Too Late Now?
TTITLE11=Foggy Mountain Breakdown
TTITLE12=I'll Be Going to Heaven Sometime
TTITLE13=So Happy I'll Be
TTITLE14=My Little Girl in Sunny Tennessee
TTITLE15=I'll Never Love Another
TTITLE16=Doin' My Time
TTITLE17=Pike County Breakdown
TTITLE18=Cora is Gone
TTITLE19=Preachin', Prayin', Singin'
EXTD=
EXTT0=
EXTT1=
EXTT2=
EXTT3=
EXTT4=
EXTT5=
EXTT6=
EXTT7=
EXTT8=
EXTT9=
EXTT10=
EXTT11=
EXTT12=
EXTT13=
EXTT14=
EXTT15=
EXTT16=
EXTT17=
EXTT18=
EXTT19=
PLAYORDER=
